<svg width="22" height="15" viewBox="0 0 22 15" fill="none" xmlns="http://www.w3.org/2000/svg">
<g id="Group">
<path id="Vector" d="M14.4375 7.49035C14.4375 8.37245 14.0753 9.21843 13.4307 9.84217C12.786 10.4659 11.9117 10.8163 11 10.8163C10.0883 10.8163 9.21398 10.4659 8.56932 9.84217C7.92466 9.21843 7.5625 8.37245 7.5625 7.49035C7.5625 6.60825 7.92466 5.76227 8.56932 5.13853C9.21398 4.51479 10.0883 4.16438 11 4.16438C11.9117 4.16438 12.786 4.51479 13.4307 5.13853C14.0753 5.76227 14.4375 6.60825 14.4375 7.49035Z" fill="#CE0033"/>
<path id="Vector_2" d="M0 7.49035C0 7.49035 4.125 0.173203 11 0.173203C17.875 0.173203 22 7.49035 22 7.49035C22 7.49035 17.875 14.8075 11 14.8075C4.125 14.8075 0 7.49035 0 7.49035ZM11 12.1467C12.2764 12.1467 13.5004 11.6561 14.403 10.7829C15.3055 9.90966 15.8125 8.72529 15.8125 7.49035C15.8125 6.2554 15.3055 5.07104 14.403 4.1978C13.5004 3.32456 12.2764 2.83398 11 2.83398C9.72365 2.83398 8.49957 3.32456 7.59705 4.1978C6.69453 5.07104 6.1875 6.2554 6.1875 7.49035C6.1875 8.72529 6.69453 9.90966 7.59705 10.7829C8.49957 11.6561 9.72365 12.1467 11 12.1467Z" fill="#CE0033"/>
</g>
</svg>
